<svg xmlns="http://www.w3.org/2000/svg" viewBox="0 0 512.002 512.002" width="512" height="512"><g fill="#1bbd50"><path d="M429.733 343.339c4.738-72.763-16.131-145.064-34.625-193.154-18.377-47.789-37.568-80.907-41.595-87.659-1.259-5.35-6.337-21.041-23.657-28.491-3.877-2.517-23.569-14.974-47.256-24.098-36.823-14.185-64.138-13.18-81.175 2.994-22.839 21.681-33.39 40.966-31.36 57.319.977 7.862 4.589 13.242 7.793 16.573-.186 1.672-.155 3.581.26 5.7 1.806 9.243 10.159 18.228 24.824 26.701 29.883 17.266 52.746 6.345 67.876-.881 1.434-.685 2.825-1.35 4.177-1.969 2.26-1.035 3.26-.574 3.688-.378 2.499 1.152 4.887 5.396 6.115 8.674-2.539 14.487-16.283 97.845-6.866 153.449-25.652-8.512-49.277-6.322-66.813-1.787-20.467 5.295-35.851 14.417-42.806 19.066-14.267-5.817-31.49-6.985-50.397-3.455-.01-.092-.015-.151-.017-.174a8.056 8.056 0 0 0-8.023-7.317H82.578a8.055 8.055 0 0 0-8.057 8.057v182.048c0 4.451 3.606 8.057 8.057 8.057s8.057-3.606 8.057-8.057v-173.99h12.056c1.651 12.88 6.043 41.329 15.879 74.716 15.143 51.401 36.242 91.86 62.854 120.603H82.578a8.055 8.055 0 0 0-8.057 8.057A8.055 8.055 0 0 0 82.578 512h118.755a8.056 8.056 0 0 0 5.255-14.164c-.077-.067-.151-.136-.229-.203 16.282-6.622 30.434-15.486 42.205-26.443 3.148.202 6.191.289 9.085.289 13.965 0 24.462-1.984 26.643-2.43a185.169 185.169 0 0 0 12.667-2.162c34.724-7.196 60.487-23.621 74.929-47.667 19.866 2.958 51.902-.128 62.286-29.639 6.543-18.592 2.489-34.525-4.441-46.242zm-10.758 40.895c-9.587 27.236-47.807 18.525-49.413 18.146a8.063 8.063 0 0 0-9.071 4.181c-27.861 54.794-112.887 47.95-113.739 47.872a7.933 7.933 0 0 0-2.607.19c-12.708-1.411-26.582-5.176-37.976-13.723a8.056 8.056 0 0 0-11.28 1.609 8.057 8.057 0 0 0 1.609 11.28c9.483 7.115 20.141 11.52 30.683 14.156-9.772 7.084-21.018 12.879-33.607 17.306-49.688-53.612-67.911-141.339-73.519-177.321 13.378-2.596 30.751-3.48 45.541 3.916a8.08 8.08 0 0 0 8.548-.844c.165-.129 16.941-12.966 41.569-19.21 24.477-6.206 47.738-3.984 69.419 6.57.298.171.605.324.922.457 6.618 3.3 13.09 7.371 19.401 12.23a8.02 8.02 0 0 0 4.909 1.674 8.057 8.057 0 0 0 4.921-14.442c-6.456-4.971-12.904-9.065-19.289-12.434-14.027-54.965 4.817-159.23 5.014-160.298a8.072 8.072 0 0 0-.157-3.595c-.433-1.574-4.546-15.522-15.35-20.558-3.734-1.74-9.753-3.096-17.222.328-1.426.653-2.894 1.355-4.409 2.079-14.22 6.791-30.335 14.486-52.868 1.469-15.669-9.052-17.476-15.403-17.109-16.817a8.063 8.063 0 0 0-2.817-11.399c-.042-.023-4.271-2.753-5.02-8.79-.769-6.189 1.648-20.09 26.463-43.646 24.986-23.728 87.21 8.756 109.076 23.27.447.298.922.549 1.418.752 12.631 5.149 14.842 17.593 14.92 18.051a8.073 8.073 0 0 0 1.1 3.03c.807 1.316 76.889 127.027 75.263 256.257a42.995 42.995 0 0 0-1.117-.791 8.058 8.058 0 0 0-9.068 13.32c.249.169 24.851 17.328 14.862 45.725z"/><path d="M294.474 349.802c-43.914 43.329-119.853 26.859-120.617 26.687-4.334-.982-8.649 1.738-9.633 6.075a8.056 8.056 0 0 0 6.073 9.641c1.472.335 17.156 3.769 38.561 3.769 28.848 0 68.087-6.237 96.934-34.7a8.058 8.058 0 0 0 .076-11.394 8.056 8.056 0 0 0-11.394-.078zm38.843-204.38c-4.131 1.648-6.143 6.334-4.499 10.466.241.605 23.924 61.309 11.079 131.941a8.058 8.058 0 0 0 15.855 2.883c13.703-75.36-10.915-138.166-11.97-140.802-1.65-4.128-6.336-6.133-10.465-4.488z"/></g></svg>