<?xml version="1.0" encoding="UTF-8"?>
<svg width="179px" height="48px" viewBox="0 0 179 48" version="1.1" xmlns="http://www.w3.org/2000/svg" xmlns:xlink="http://www.w3.org/1999/xlink">
    <!-- Generator: Sketch 43.1 (39012) - http://www.bohemiancoding.com/sketch -->
    <title>ehhted</title>
    <desc>Created with Sketch.</desc>
    <defs></defs>
    <g id="Page-1" stroke="none" stroke-width="1" fill="none" fill-rule="evenodd">
        <path d="M0.107978375,33.6650738 C-0.123837051,31.0442911 0.27011493,28.3243967 1.39824673,25.9005901 C2.65339213,23.4108475 4.36037249,21.1702739 6.67937731,19.6116871 C8.92314561,18.1566546 11.4682758,17.1578993 14.1032173,17.0154792 C16.775777,16.821282 19.4956715,17.215234 21.8818599,18.3951429 C23.1714288,19.0156362 24.4375384,19.7773019 25.4637795,20.7602348 C26.1510405,21.3386675 26.7489061,21.931259 27.3091535,22.5756276 C27.8317826,23.2717733 28.2650164,23.9820778 28.6982501,24.6923823 C30.1957592,27.2043366 30.8041731,30.1778424 30.7067248,33.034051 C30.678823,33.7257544 30.2039445,34.4882519 29.6724307,34.893168 C29.3055487,35.1803711 28.8868897,35.4299559 28.3881359,35.4631318 C28.1575681,35.4538312 27.9787774,35.4821489 27.7105914,35.5246254 C27.018888,35.4967236 26.3789618,35.5064401 25.7390356,35.5161565 C22.8969857,35.5081036 20.106713,35.5376689 17.2646632,35.529616 C14.065032,35.5781984 10.9030191,35.5750037 7.70338789,35.623586 L6.05179521,35.610259 L6.88550273,37.4026082 C7.40813185,38.0987539 7.93076096,38.7948996 8.58040368,39.4251093 C8.85344795,39.7025959 9.21588756,39.9659237 9.57832717,40.2292515 C9.63010426,40.2668698 9.73365844,40.3421063 9.74781727,40.4315016 C9.83721261,40.4173428 9.8889897,40.4549611 9.99254388,40.5301976 C10.3549835,40.7935254 10.665646,41.0192349 11.0657039,41.2307856 C11.8658196,41.653887 12.6517765,41.9875931 13.4611929,42.1801267 C14.3600045,42.3585015 15.1928803,42.4098627 16.0633743,42.4094469 C16.4727328,42.3904298 16.8820912,42.3714127 17.2396726,42.3147774 C18.7593935,42.0740773 20.1573748,43.0897702 20.398075,44.609491 C20.5361894,45.4815116 20.1985925,46.3607552 19.5898746,46.9656273 C19.2001473,47.3528923 18.6992845,47.6276895 18.1409796,47.7161163 C14.1181891,48.3532637 10.0193304,47.3529773 6.75737385,44.9830271 L6.34315715,44.6820811 C4.47918199,43.3278239 2.95377114,41.5075728 1.80940109,39.4895141 C1.36200849,38.6898142 1.04162949,37.8241784 0.773027571,36.9961609 C0.461949162,35.8999574 0.20264784,34.8413721 0.107978375,33.6650738 Z M8.37997216,25.2285434 C7.80153948,25.9158043 7.2748839,26.6406836 6.8000054,27.4031811 C6.41452224,28.1515197 6.09497501,29.026872 5.90244137,29.8362883 C5.86482312,29.8880654 5.86482312,29.8880654 5.87898195,29.9774607 C8.66925467,29.9478954 11.4595274,29.9183301 14.3015772,29.926383 C17.4635902,29.9295777 20.6632213,29.8809954 23.8252343,29.8841901 C24.2863698,29.9027912 24.6957283,29.8837742 25.1050868,29.8647571 C25.0767691,29.6859664 25.0484514,29.5071757 24.9683567,29.2907668 C24.7515318,28.5003675 24.3935346,27.6865088 23.9603008,26.9762043 C23.527067,26.2658998 22.9526608,25.5321359 22.3547952,24.9395444 C21.6675342,24.3611117 20.942655,23.8344561 20.1801575,23.3595776 C19.4318189,22.9740945 18.6082437,22.6921655 17.7470503,22.4620136 C16.937634,22.26948 16.1047582,22.2181187 15.2342642,22.2185346 C14.4155473,22.2565688 13.5215938,22.3981571 12.7311946,22.6149819 C11.9031771,22.8835838 11.1269366,23.189804 10.4166321,23.6230378 C9.66870934,24.1080486 8.97256366,24.6306777 8.37997216,25.2285434 Z M47.256,16.536 C46.04,16.536 44.824,16.664 43.672,16.92 C42.392,17.304 41.176,17.816 40.152,18.52 L40.152,3.288 C40.152,1.816 38.872,0.6 37.4,0.6 C35.864,0.6 34.648,1.816 34.648,3.288 L34.648,44.376 C34.648,45.848 35.928,47.128 37.4,47.128 C38.872,47.128 40.152,45.848 40.152,44.376 L40.152,27.8 C40.28,27.224 40.408,26.648 40.664,26.072 C40.856,25.56 41.176,25.048 41.496,24.6 C41.88,24.152 42.264,23.768 42.712,23.384 C43.224,23.064 43.672,22.744 44.184,22.552 C44.76,22.296 45.336,22.168 45.912,22.04 C46.808,21.976 47.704,21.976 48.536,22.04 C49.112,22.168 49.688,22.296 50.264,22.552 C50.776,22.744 51.288,23.064 51.736,23.384 C52.184,23.768 52.568,24.152 52.952,24.6 C53.272,25.048 53.592,25.56 53.848,26.072 C54.04,26.648 54.168,27.224 54.296,27.8 C54.36,28.504 54.296,29.208 54.296,29.912 L54.296,44.376 C54.296,45.848 55.576,47.128 57.048,47.128 C58.584,47.128 59.8,45.848 59.8,44.376 L59.8,29.464 C59.8,28.184 59.736,26.84 59.416,25.624 C59.096,24.28 58.52,23.064 57.752,21.976 C57.304,21.336 56.856,20.696 56.344,20.184 C55.768,19.608 55.192,19.16 54.552,18.712 C52.44,17.176 49.816,16.536 47.256,16.536 Z M76.248,16.536 C75.032,16.536 73.816,16.664 72.664,16.92 C71.384,17.304 70.168,17.816 69.144,18.52 L69.144,3.288 C69.144,1.816 67.864,0.6 66.392,0.6 C64.856,0.6 63.64,1.816 63.64,3.288 L63.64,44.376 C63.64,45.848 64.92,47.128 66.392,47.128 C67.864,47.128 69.144,45.848 69.144,44.376 L69.144,27.8 C69.272,27.224 69.4,26.648 69.656,26.072 C69.848,25.56 70.168,25.048 70.488,24.6 C70.872,24.152 71.256,23.768 71.704,23.384 C72.216,23.064 72.664,22.744 73.176,22.552 C73.752,22.296 74.328,22.168 74.904,22.04 C75.8,21.976 76.696,21.976 77.528,22.04 C78.104,22.168 78.68,22.296 79.256,22.552 C79.768,22.744 80.28,23.064 80.728,23.384 C81.176,23.768 81.56,24.152 81.944,24.6 C82.264,25.048 82.584,25.56 82.84,26.072 C83.032,26.648 83.16,27.224 83.288,27.8 C83.352,28.504 83.288,29.208 83.288,29.912 L83.288,44.376 C83.288,45.848 84.568,47.128 86.04,47.128 C87.576,47.128 88.792,45.848 88.792,44.376 L88.792,29.464 C88.792,28.184 88.728,26.84 88.408,25.624 C88.088,24.28 87.512,23.064 86.744,21.976 C86.296,21.336 85.848,20.696 85.336,20.184 C84.76,19.608 84.184,19.16 83.544,18.712 C81.432,17.176 78.808,16.536 76.248,16.536 Z M95.064,41.112 C95.512,41.688 96.024,42.328 96.536,42.84 C97.112,43.416 97.688,43.864 98.328,44.312 C99.352,45.144 100.632,45.72 101.848,46.104 C103.192,46.552 104.6,46.744 105.944,46.744 C107.416,46.744 108.696,45.528 108.696,43.992 C108.696,42.52 107.416,41.304 105.944,41.304 C105.624,41.24 105.24,41.24 104.92,41.24 C104.216,41.112 103.576,40.92 102.936,40.664 C102.296,40.408 101.72,40.024 101.144,39.64 C100.632,39.256 100.184,38.744 99.736,38.232 C99.352,37.72 99.032,37.144 98.712,36.504 C98.456,35.864 98.328,35.16 98.2,34.52 C98.136,34.136 98.136,33.816 98.136,33.432 L98.136,22.872 L106.136,22.872 C107.672,22.872 108.888,21.656 108.888,20.12 C108.888,18.648 107.672,17.432 106.136,17.432 L98.136,17.432 L98.136,3.672 C98.136,2.136 96.856,0.92 95.384,0.92 C93.912,0.92 92.632,2.136 92.632,3.672 L92.632,33.752 C92.696,36.376 93.528,39 95.064,41.112 Z M116.568,41.752 C114.84,39.768 113.56,37.336 113.048,34.712 C112.6,31.96 112.664,29.144 113.624,26.52 C114.584,24.024 116.056,21.72 118.104,20.056 C120.152,18.328 122.584,17.048 125.208,16.6 C126.616,16.344 128.088,16.216 129.496,16.408 C130.392,16.472 131.224,16.6 132.056,16.792 C132.888,17.048 133.656,17.368 134.424,17.688 C137.112,18.84 139.352,20.888 140.952,23.256 C141.336,23.832 141.4,24.728 141.208,25.368 C141.08,25.816 140.888,26.264 140.504,26.584 C140.312,26.712 140.184,26.84 139.992,27.032 C139.416,27.416 138.904,27.8 138.392,28.184 C136.088,29.848 133.848,31.512 131.544,33.176 C128.984,35.096 126.424,36.952 123.864,38.872 L122.52,39.832 L124.248,40.792 C125.08,41.048 125.912,41.304 126.808,41.432 C127.192,41.496 127.64,41.496 128.088,41.496 C128.152,41.496 128.28,41.496 128.344,41.56 C128.408,41.496 128.472,41.496 128.6,41.496 C129.048,41.496 129.432,41.496 129.88,41.432 C130.776,41.304 131.608,41.112 132.376,40.792 C133.208,40.408 133.912,39.96 134.616,39.448 C134.936,39.192 135.256,38.936 135.512,38.68 C136.6,37.592 138.328,37.592 139.416,38.68 C140.44,39.704 140.44,41.496 139.416,42.52 C136.536,45.4 132.632,47 128.6,47 L128.088,47 C125.784,47 123.48,46.424 121.368,45.464 C120.536,45.08 119.768,44.568 119.064,44.056 C118.168,43.352 117.336,42.648 116.568,41.752 Z M118.296,30.296 C118.232,31.192 118.232,32.088 118.296,32.984 C118.424,33.816 118.68,34.712 119,35.48 C119,35.544 119,35.544 119.064,35.608 C121.304,33.944 123.544,32.28 125.848,30.616 C128.408,28.76 130.968,26.84 133.528,24.984 C133.912,24.728 134.232,24.472 134.552,24.216 C134.424,24.088 134.296,23.96 134.104,23.832 C133.464,23.32 132.696,22.872 131.928,22.552 C131.16,22.232 130.264,21.976 129.432,21.848 C128.536,21.784 127.64,21.784 126.744,21.848 C125.912,21.976 125.08,22.232 124.248,22.552 C123.48,22.872 122.776,23.32 122.072,23.832 C121.432,24.344 120.792,24.984 120.28,25.624 C119.768,26.328 119.32,27.032 119,27.8 C118.68,28.632 118.424,29.464 118.296,30.296 Z M147.48,39.64 C146.072,37.336 145.304,34.648 145.24,31.96 C145.176,29.208 145.88,26.456 147.224,24.088 C148.504,21.784 150.424,19.864 152.664,18.52 C157.4,15.64 163.48,15.576 168.216,18.328 C169.048,18.84 169.816,19.352 170.52,19.992 L170.52,3.928 C170.52,2.456 171.8,1.176 173.272,1.176 C174.744,1.176 176.024,2.456 176.024,3.928 L176.024,35.096 C176.088,35.48 176.216,35.864 176.344,36.248 C176.984,38.68 177.624,41.112 178.328,43.544 C178.712,44.952 177.816,46.488 176.408,46.936 C174.936,47.32 173.4,46.424 173.016,45.016 C172.76,43.928 172.44,42.84 172.12,41.752 C171.16,42.904 170.008,43.864 168.728,44.696 C164.056,47.64 157.976,47.768 153.112,45.08 C150.808,43.8 148.888,41.88 147.48,39.64 Z M150.808,30.296 C150.68,31.192 150.68,32.088 150.808,32.984 C150.936,33.816 151.128,34.712 151.448,35.48 C151.832,36.248 152.216,37.016 152.728,37.656 C153.304,38.36 153.88,38.936 154.52,39.512 C155.224,39.96 155.992,40.408 156.76,40.792 C157.528,41.112 158.36,41.304 159.256,41.432 C160.152,41.56 161.048,41.56 161.88,41.432 C162.776,41.304 163.608,41.112 164.44,40.792 C165.208,40.408 165.912,39.96 166.616,39.512 C167.256,38.936 167.896,38.36 168.408,37.656 C168.92,37.016 169.368,36.248 169.688,35.48 C170.008,34.712 170.264,33.816 170.392,32.984 C170.392,32.536 170.456,32.088 170.456,31.64 C170.456,31.192 170.392,30.744 170.392,30.296 C170.264,29.464 170.008,28.632 169.688,27.8 C169.368,27.032 168.92,26.328 168.408,25.624 C167.896,24.984 167.256,24.344 166.616,23.832 C165.912,23.32 165.208,22.872 164.44,22.552 C163.608,22.232 162.776,21.976 161.88,21.848 C161.048,21.784 160.152,21.784 159.256,21.848 C158.36,21.976 157.528,22.232 156.76,22.552 C155.992,22.872 155.224,23.32 154.52,23.832 C153.88,24.344 153.304,24.984 152.728,25.624 C152.216,26.328 151.832,27.032 151.448,27.8 C151.128,28.632 150.936,29.464 150.808,30.296 Z" id="ehhted" fill="#1BBD50"></path>
    </g>
</svg>