<?xml version="1.0" encoding="UTF-8"?>
<svg width="203px" height="47px" viewBox="0 0 203 47" version="1.1" xmlns="http://www.w3.org/2000/svg" xmlns:xlink="http://www.w3.org/1999/xlink">
    <!-- Generator: Sketch 44.1 (41455) - http://www.bohemiancoding.com/sketch -->
    <title>ehhted</title>
    <desc>Created with Sketch.</desc>
    <defs></defs>
    <g id="Page-1" stroke="none" stroke-width="1" fill="none" fill-rule="evenodd">
        <path d="M29.384,27.952 C29.384,30.576 27.784,32.496 25.224,32.496 L8.008,32.496 C8.328,37.168 11.592,40.112 16.264,40.112 C18.504,40.112 20.552,39.344 22.408,37.872 C24.328,36.336 25.992,36.272 27.4,37.68 C28.744,38.96 28.68,41.2 26.952,42.8 C24.072,45.424 20.552,46.704 16.264,46.704 C11.592,46.704 7.752,45.232 4.872,42.224 C1.992,39.216 0.52,35.312 0.52,30.512 C0.52,25.84 1.928,21.872 4.68,18.672 C7.432,15.472 11.144,13.872 15.688,13.872 C20.488,13.872 24.328,15.92 26.376,18.8 C28.424,21.68 29.384,24.88 29.384,27.952 Z M15.56,20.528 C11.464,20.528 9.096,23.28 8.392,26.672 L21.768,26.672 C21.704,23.344 19.976,20.528 15.56,20.528 Z M45.512,4.784 C45.896,-0.464 37.832,-0.464 38.216,4.784 L38.216,42.352 C37.832,47.6 45.896,47.6 45.512,42.352 L45.512,28.656 C45.512,23.6 48.008,20.464 52.424,20.464 C56.328,20.464 58.632,23.344 58.632,27.76 L58.632,42.352 C58.312,47.6 66.248,47.6 65.928,42.352 L65.928,27.76 C65.928,19.056 60.808,13.872 53.32,13.872 C50.248,13.872 47.624,14.832 45.512,16.816 L45.512,4.784 Z M83.336,4.784 C83.72,-0.464 75.656,-0.464 76.04,4.784 L76.04,42.352 C75.656,47.6 83.72,47.6 83.336,42.352 L83.336,28.656 C83.336,23.6 85.832,20.464 90.248,20.464 C94.152,20.464 96.456,23.344 96.456,27.76 L96.456,42.352 C96.136,47.6 104.072,47.6 103.752,42.352 L103.752,27.76 C103.752,19.056 98.632,13.872 91.144,13.872 C88.072,13.872 85.448,14.832 83.336,16.816 L83.336,4.784 Z M125.768,39.408 C121.992,39.408 120.904,38.128 120.904,33.84 L120.904,21.168 L125.448,21.168 C127.752,21.168 128.968,19.952 128.968,17.968 C128.968,16.112 127.688,14.64 125.448,14.64 L120.904,14.64 L120.904,9.52 C120.904,4.272 113.608,4.272 113.608,9.52 L113.608,14.64 L111.88,14.64 C109.576,14.64 108.36,15.984 108.36,17.968 C108.36,19.824 109.576,21.168 111.88,21.168 L113.608,21.168 L113.608,35.056 C113.608,43.184 117.192,46.128 125.32,46.128 C127.688,46.128 129.48,44.656 129.48,42.8 C129.48,40.816 128.072,39.408 125.768,39.408 Z M163.208,27.952 C163.208,30.576 161.608,32.496 159.048,32.496 L141.832,32.496 C142.152,37.168 145.416,40.112 150.088,40.112 C152.328,40.112 154.376,39.344 156.232,37.872 C158.152,36.336 159.816,36.272 161.224,37.68 C162.568,38.96 162.504,41.2 160.776,42.8 C157.896,45.424 154.376,46.704 150.088,46.704 C145.416,46.704 141.576,45.232 138.696,42.224 C135.816,39.216 134.344,35.312 134.344,30.512 C134.344,25.84 135.752,21.872 138.504,18.672 C141.256,15.472 144.968,13.872 149.512,13.872 C154.312,13.872 158.152,15.92 160.2,18.8 C162.248,21.68 163.208,24.88 163.208,27.952 Z M149.384,20.528 C145.288,20.528 142.92,23.28 142.216,26.672 L155.592,26.672 C155.528,23.344 153.8,20.528 149.384,20.528 Z M186.632,20.336 C181.32,20.336 178.248,24.688 178.248,30.32 C178.248,35.952 181.32,40.304 186.632,40.304 C192.008,40.304 195.016,35.952 195.016,30.32 C195.016,24.688 192.008,20.336 186.632,20.336 Z M195.016,43.184 C192.776,45.552 189.768,46.704 186.12,46.704 C181.64,46.704 177.992,45.168 175.112,42.096 C172.232,38.96 170.824,35.056 170.824,30.32 C170.824,25.584 172.232,21.68 175.112,18.544 C177.992,15.408 181.64,13.872 186.12,13.872 C189.576,13.872 192.52,14.896 194.888,16.944 L194.888,4.784 C194.888,-0.464 202.184,-0.464 202.184,4.784 L202.184,42.48 C202.184,44.976 200.648,46.384 198.6,46.384 C196.744,46.384 195.272,45.232 195.016,43.184 Z" id="ehhted" fill="#1BBD50"></path>
    </g>
</svg>