<svg width="179" height="48" viewBox="0 0 179 48" xmlns="http://www.w3.org/2000/svg"><title>ehhted</title><path d="M.108 33.665c-.232-2.62.162-5.34 1.29-7.764 1.255-2.49 2.962-4.73 5.281-6.29 2.244-1.454 4.79-2.453 7.424-2.596 2.673-.194 5.393.2 7.779 1.38 1.29.62 2.556 1.382 3.582 2.365a16.438 16.438 0 0 1 1.845 1.816c.523.696.956 1.406 1.39 2.116 1.497 2.512 2.105 5.486 2.008 8.342-.028.692-.503 1.454-1.035 1.86-.366.286-.785.536-1.284.57-.23-.01-.41.018-.677.06a35.229 35.229 0 0 0-1.972-.008c-2.842-.008-5.632.022-8.474.014-3.2.048-6.362.045-9.562.094l-1.651-.014.834 1.793c.522.696 1.045 1.392 1.694 2.022.273.278.636.54.998.804.052.038.156.113.17.203.09-.015.141.023.245.098.362.264.673.49 1.073.7.8.424 1.586.758 2.395.95.899.179 1.732.23 2.602.23.41-.02.82-.039 1.177-.095a2.743 2.743 0 0 1 3.158 2.294c.138.873-.2 1.752-.808 2.357a2.65 2.65 0 0 1-1.449.75 15.311 15.311 0 0 1-11.384-2.733l-.414-.3c-1.864-1.355-3.39-3.175-4.534-5.193-.447-.8-.767-1.666-1.036-2.494-.311-1.096-.57-2.155-.665-3.33zM8.38 25.23a18.84 18.84 0 0 0-1.58 2.174 11.127 11.127 0 0 0-.898 2.433c-.037.052-.037.052-.023.141 2.79-.03 5.58-.059 8.423-.05 3.162.003 6.361-.046 9.523-.043.461.019.87 0 1.28-.02a2.77 2.77 0 0 0-.137-.573 9.264 9.264 0 0 0-1.008-2.315 11.127 11.127 0 0 0-1.605-2.036 18.84 18.84 0 0 0-2.175-1.58c-.748-.386-1.572-.668-2.433-.898-.81-.193-1.642-.244-2.513-.243a11.86 11.86 0 0 0-2.503.396c-.828.269-1.604.575-2.314 1.008-.748.485-1.444 1.008-2.037 1.606zm38.876-8.693c-1.216 0-2.432.128-3.584.384-1.28.384-2.496.896-3.52 1.6V3.288C40.152 1.816 38.872.6 37.4.6c-1.536 0-2.752 1.216-2.752 2.688v41.088c0 1.472 1.28 2.752 2.752 2.752 1.472 0 2.752-1.28 2.752-2.752V27.8c.128-.576.256-1.152.512-1.728.192-.512.512-1.024.832-1.472.384-.448.768-.832 1.216-1.216.512-.32.96-.64 1.472-.832.576-.256 1.152-.384 1.728-.512a17.949 17.949 0 0 1 2.624 0c.576.128 1.152.256 1.728.512.512.192 1.024.512 1.472.832.448.384.832.768 1.216 1.216.32.448.64.96.896 1.472.192.576.32 1.152.448 1.728.064.704 0 1.408 0 2.112v14.464c0 1.472 1.28 2.752 2.752 2.752 1.536 0 2.752-1.28 2.752-2.752V29.464c0-1.28-.064-2.624-.384-3.84a10.525 10.525 0 0 0-1.664-3.648c-.448-.64-.896-1.28-1.408-1.792-.576-.576-1.152-1.024-1.792-1.472-2.112-1.536-4.736-2.176-7.296-2.176zm28.992 0c-1.216 0-2.432.128-3.584.384-1.28.384-2.496.896-3.52 1.6V3.288c0-1.472-1.28-2.688-2.752-2.688-1.536 0-2.752 1.216-2.752 2.688v41.088c0 1.472 1.28 2.752 2.752 2.752 1.472 0 2.752-1.28 2.752-2.752V27.8c.128-.576.256-1.152.512-1.728.192-.512.512-1.024.832-1.472.384-.448.768-.832 1.216-1.216.512-.32.96-.64 1.472-.832.576-.256 1.152-.384 1.728-.512a17.949 17.949 0 0 1 2.624 0c.576.128 1.152.256 1.728.512.512.192 1.024.512 1.472.832.448.384.832.768 1.216 1.216.32.448.64.96.896 1.472.192.576.32 1.152.448 1.728.064.704 0 1.408 0 2.112v14.464c0 1.472 1.28 2.752 2.752 2.752 1.536 0 2.752-1.28 2.752-2.752V29.464c0-1.28-.064-2.624-.384-3.84a10.525 10.525 0 0 0-1.664-3.648c-.448-.64-.896-1.28-1.408-1.792-.576-.576-1.152-1.024-1.792-1.472-2.112-1.536-4.736-2.176-7.296-2.176zm18.816 24.576c.448.576.96 1.216 1.472 1.728.576.576 1.152 1.024 1.792 1.472 1.024.832 2.304 1.408 3.52 1.792 1.344.448 2.752.64 4.096.64 1.472 0 2.752-1.216 2.752-2.752 0-1.472-1.28-2.688-2.752-2.688-.32-.064-.704-.064-1.024-.064a10.132 10.132 0 0 1-1.984-.576c-.64-.256-1.216-.64-1.792-1.024-.512-.384-.96-.896-1.408-1.408-.384-.512-.704-1.088-1.024-1.728-.256-.64-.384-1.344-.512-1.984-.064-.384-.064-.704-.064-1.088v-10.56h8a2.732 2.732 0 0 0 2.752-2.752c0-1.472-1.216-2.688-2.752-2.688h-8V3.672c0-1.536-1.28-2.752-2.752-2.752-1.472 0-2.752 1.216-2.752 2.752v30.08c.064 2.624.896 5.248 2.432 7.36zm21.504.64c-1.728-1.984-3.008-4.416-3.52-7.04-.448-2.752-.384-5.568.576-8.192.96-2.496 2.432-4.8 4.48-6.464 2.048-1.728 4.48-3.008 7.104-3.456 1.408-.256 2.88-.384 4.288-.192.896.064 1.728.192 2.56.384.832.256 1.6.576 2.368.896 2.688 1.152 4.928 3.2 6.528 5.568.384.576.448 1.472.256 2.112-.128.448-.32.896-.704 1.216-.192.128-.32.256-.512.448-.576.384-1.088.768-1.6 1.152-2.304 1.664-4.544 3.328-6.848 4.992-2.56 1.92-5.12 3.776-7.68 5.696l-1.344.96 1.728.96c.832.256 1.664.512 2.56.64.384.064.832.064 1.28.064.064 0 .192 0 .256.064.064-.064.128-.064.256-.064.448 0 .832 0 1.28-.064.896-.128 1.728-.32 2.496-.64.832-.384 1.536-.832 2.24-1.344.32-.256.64-.512.896-.768a2.743 2.743 0 0 1 3.904 0c1.024 1.024 1.024 2.816 0 3.84A15.311 15.311 0 0 1 128.6 47h-.512c-2.304 0-4.608-.576-6.72-1.536-.832-.384-1.6-.896-2.304-1.408-.896-.704-1.728-1.408-2.496-2.304zm1.728-11.456a18.84 18.84 0 0 0 0 2.688c.128.832.384 1.728.704 2.496 0 .064 0 .064.064.128 2.24-1.664 4.48-3.328 6.784-4.992 2.56-1.856 5.12-3.776 7.68-5.632.384-.256.704-.512 1.024-.768a2.784 2.784 0 0 0-.448-.384 9.264 9.264 0 0 0-2.176-1.28 11.127 11.127 0 0 0-2.496-.704 18.84 18.84 0 0 0-2.688 0c-.832.128-1.664.384-2.496.704-.768.32-1.472.768-2.176 1.28a11.86 11.86 0 0 0-1.792 1.792c-.512.704-.96 1.408-1.28 2.176-.32.832-.576 1.664-.704 2.496zm29.184 9.344c-1.408-2.304-2.176-4.992-2.24-7.68a15.329 15.329 0 0 1 1.984-7.872c1.28-2.304 3.2-4.224 5.44-5.568 4.736-2.88 10.816-2.944 15.552-.192.832.512 1.6 1.024 2.304 1.664V3.928c0-1.472 1.28-2.752 2.752-2.752 1.472 0 2.752 1.28 2.752 2.752v31.168c.064.384.192.768.32 1.152.64 2.432 1.28 4.864 1.984 7.296.384 1.408-.512 2.944-1.92 3.392-1.472.384-3.008-.512-3.392-1.92-.256-1.088-.576-2.176-.896-3.264-.96 1.152-2.112 2.112-3.392 2.944-4.672 2.944-10.752 3.072-15.616.384-2.304-1.28-4.224-3.2-5.632-5.44zm3.328-9.344a9.456 9.456 0 0 0 0 2.688c.128.832.32 1.728.64 2.496.384.768.768 1.536 1.28 2.176.576.704 1.152 1.28 1.792 1.856.704.448 1.472.896 2.24 1.28.768.32 1.6.512 2.496.64a9.01 9.01 0 0 0 2.624 0c.896-.128 1.728-.32 2.56-.64.768-.384 1.472-.832 2.176-1.28.64-.576 1.28-1.152 1.792-1.856.512-.64.96-1.408 1.28-2.176.32-.768.576-1.664.704-2.496 0-.448.064-.896.064-1.344 0-.448-.064-.896-.064-1.344-.128-.832-.384-1.664-.704-2.496-.32-.768-.768-1.472-1.28-2.176a11.86 11.86 0 0 0-1.792-1.792c-.704-.512-1.408-.96-2.176-1.28-.832-.32-1.664-.576-2.56-.704a17.949 17.949 0 0 0-2.624 0c-.896.128-1.728.384-2.496.704-.768.32-1.536.768-2.24 1.28-.64.512-1.216 1.152-1.792 1.792-.512.704-.896 1.408-1.28 2.176-.32.832-.512 1.664-.64 2.496z" fill="#1BBD50" fill-rule="evenodd"/></svg>