<svg width="203" height="47" viewBox="0 0 203 47" xmlns="http://www.w3.org/2000/svg"><title>ehhted</title><path d="M29.384 27.952c0 2.624-1.6 4.544-4.16 4.544H8.008c.32 4.672 3.584 7.616 8.256 7.616 2.24 0 4.288-.768 6.144-2.24 1.92-1.536 3.584-1.6 4.992-.192 1.344 1.28 1.28 3.52-.448 5.12-2.88 2.624-6.4 3.904-10.688 3.904-4.672 0-8.512-1.472-11.392-4.48C1.992 39.216.52 35.312.52 30.512c0-4.672 1.408-8.64 4.16-11.84 2.752-3.2 6.464-4.8 11.008-4.8 4.8 0 8.64 2.048 10.688 4.928s3.008 6.08 3.008 9.152zM15.56 20.528c-4.096 0-6.464 2.752-7.168 6.144h13.376c-.064-3.328-1.792-6.144-6.208-6.144zM45.512 4.784c.384-5.248-7.68-5.248-7.296 0v37.568c-.384 5.248 7.68 5.248 7.296 0V28.656c0-5.056 2.496-8.192 6.912-8.192 3.904 0 6.208 2.88 6.208 7.296v14.592c-.32 5.248 7.616 5.248 7.296 0V27.76c0-8.704-5.12-13.888-12.608-13.888-3.072 0-5.696.96-7.808 2.944V4.784zm37.824 0c.384-5.248-7.68-5.248-7.296 0v37.568c-.384 5.248 7.68 5.248 7.296 0V28.656c0-5.056 2.496-8.192 6.912-8.192 3.904 0 6.208 2.88 6.208 7.296v14.592c-.32 5.248 7.616 5.248 7.296 0V27.76c0-8.704-5.12-13.888-12.608-13.888-3.072 0-5.696.96-7.808 2.944V4.784zm42.432 34.624c-3.776 0-4.864-1.28-4.864-5.568V21.168h4.544c2.304 0 3.52-1.216 3.52-3.2 0-1.856-1.28-3.328-3.52-3.328h-4.544V9.52c0-5.248-7.296-5.248-7.296 0v5.12h-1.728c-2.304 0-3.52 1.344-3.52 3.328 0 1.856 1.216 3.2 3.52 3.2h1.728v13.888c0 8.128 3.584 11.072 11.712 11.072 2.368 0 4.16-1.472 4.16-3.328 0-1.984-1.408-3.392-3.712-3.392zm37.44-11.456c0 2.624-1.6 4.544-4.16 4.544h-17.216c.32 4.672 3.584 7.616 8.256 7.616 2.24 0 4.288-.768 6.144-2.24 1.92-1.536 3.584-1.6 4.992-.192 1.344 1.28 1.28 3.52-.448 5.12-2.88 2.624-6.4 3.904-10.688 3.904-4.672 0-8.512-1.472-11.392-4.48-2.88-3.008-4.352-6.912-4.352-11.712 0-4.672 1.408-8.64 4.16-11.84 2.752-3.2 6.464-4.8 11.008-4.8 4.8 0 8.64 2.048 10.688 4.928s3.008 6.08 3.008 9.152zm-13.824-7.424c-4.096 0-6.464 2.752-7.168 6.144h13.376c-.064-3.328-1.792-6.144-6.208-6.144zm37.248-.192c-5.312 0-8.384 4.352-8.384 9.984s3.072 9.984 8.384 9.984c5.376 0 8.384-4.352 8.384-9.984s-3.008-9.984-8.384-9.984zm8.384 22.848c-2.24 2.368-5.248 3.52-8.896 3.52-4.48 0-8.128-1.536-11.008-4.608-2.88-3.136-4.288-7.04-4.288-11.776s1.408-8.64 4.288-11.776c2.88-3.136 6.528-4.672 11.008-4.672 3.456 0 6.4 1.024 8.768 3.072V4.784c0-5.248 7.296-5.248 7.296 0V42.48c0 2.496-1.536 3.904-3.584 3.904-1.856 0-3.328-1.152-3.584-3.2z" fill="#1BBD50" fill-rule="evenodd"/></svg>